<svg width="0" height="0" class="hidden">
  <symbol fill="none" xmlns="http://www.w3.org/2000/svg" viewBox="0 0 32 32" id="aparat-icon">
    <path opacity="0.1" fill-rule="evenodd" clip-rule="evenodd" d="M0 16C0 7.16344 7.16344 0 16 0C24.8366 0 32 7.16344 32 16C32 24.8366 24.8366 32 16 32C7.16344 32 0 24.8366 0 16Z" fill="white"></path>
    <path fill-rule="evenodd" clip-rule="evenodd" d="M24.5333 15.9882C24.5333 16.5653 24.4746 17.1416 24.3592 17.7033C24.2467 18.2517 24.08 18.7901 23.8617 19.3048C23.6483 19.8104 23.3837 20.2976 23.0745 20.752C22.77 21.2035 22.4191 21.627 22.0337 22.0131C21.6474 22.3976 21.2224 22.7475 20.7711 23.0534C20.3152 23.3604 19.8273 23.6246 19.3215 23.8389C18.806 24.0561 18.2664 24.2226 17.7184 24.3349C17.1559 24.4506 16.5776 24.5096 15.9996 24.5096C15.4213 24.5096 14.8429 24.4506 14.2812 24.3349C13.7324 24.2226 13.1928 24.0561 12.6778 23.8389C12.1719 23.6246 11.6836 23.3604 11.2277 23.0534C10.7764 22.7475 10.3514 22.3976 9.96599 22.0131C9.58015 21.627 9.22928 21.2035 8.92427 20.752C8.61675 20.2976 8.35172 19.8104 8.13755 19.3048C7.91918 18.7901 7.75211 18.2517 7.63919 17.7033C7.52503 17.1416 7.46667 16.5653 7.46667 15.9882C7.46667 15.4107 7.52499 14.8331 7.63922 14.2726C7.75215 13.7242 7.91922 13.185 8.13759 12.6711C8.35175 12.1652 8.61678 11.6775 8.9243 11.2231C9.22931 10.7713 9.58018 10.3485 9.96602 9.96195C10.3515 9.57746 10.7765 9.2284 11.2278 8.923C11.6836 8.61466 12.172 8.35047 12.6778 8.13575C13.1929 7.9181 13.7324 7.75127 14.2812 7.63977C14.8429 7.52494 15.4213 7.46667 15.9997 7.46667C16.5776 7.46667 17.1559 7.52494 17.7185 7.63977C18.2664 7.7513 18.806 7.91813 19.3215 8.13575C19.8273 8.35044 20.3153 8.61466 20.7711 8.923C21.2224 9.2284 21.6475 9.57746 22.0337 9.96195C22.4191 10.3485 22.77 10.7713 23.0746 11.2231C23.3837 11.6775 23.6483 12.1652 23.8617 12.6711C24.08 13.185 24.2467 13.7242 24.3592 14.2726C24.4746 14.8331 24.5333 15.4107 24.5333 15.9882ZM12.8903 9.40605C10.8581 10.3643 9.34131 12.2342 8.86836 14.4878C9.06048 14.4894 12.0973 14.5277 15.5962 13.5994C14.3349 11.3617 12.9874 9.53549 12.8903 9.40605ZM16.2 14.72C12.4477 15.8417 8.84711 15.761 8.71795 15.756C8.71585 15.8342 8.71211 15.9099 8.71211 15.9882C8.71211 17.8576 9.41839 19.5619 10.5793 20.8506C10.5768 20.8468 12.5711 17.3138 16.5038 16.0439C16.5988 16.0123 16.6955 15.984 16.7913 15.9566C16.6084 15.543 16.4087 15.1286 16.2 14.72ZM20.8124 10.5266C19.5293 9.39689 17.8447 8.71164 15.9996 8.71164C15.4075 8.71164 14.8329 8.78321 14.2824 8.91552C14.3916 9.062 15.7604 10.8753 17.0067 13.1604C19.7565 12.131 20.7944 10.5532 20.8124 10.5266ZM17.288 17.1624C17.2718 17.1677 17.2556 17.1724 17.2397 17.1782C12.94 18.675 11.5358 21.6914 11.5206 21.7244C12.7578 22.6851 14.3096 23.2647 15.9996 23.2647C17.0088 23.2647 17.9701 23.0595 18.8448 22.688C18.7368 22.0522 18.3135 19.8237 17.288 17.1624ZM20.0719 22.0231C21.7082 20.9205 22.8703 19.1696 23.1945 17.1415C23.0445 17.0933 21.0057 16.4487 18.6535 16.8253C19.6093 19.4484 19.9977 21.5846 20.0719 22.0231ZM17.5676 14.2448C17.7368 14.5918 17.9006 14.945 18.0518 15.2999C18.1056 15.4273 18.1581 15.5521 18.2093 15.6769C20.7128 15.3623 23.1792 15.8916 23.2846 15.9132C23.2679 14.1882 22.65 12.6049 21.6275 11.3654C21.6137 11.3849 20.4449 13.0714 17.5676 14.2448Z" fill="white"></path>
  </symbol>
  <symbol fill="none" xmlns="http://www.w3.org/2000/svg" viewBox="0 0 32 32" id="insta-icon">
    <path opacity="0.1" fill-rule="evenodd" clip-rule="evenodd" d="M0 16C0 7.16344 7.16344 0 16 0C24.8366 0 32 7.16344 32 16C32 24.8366 24.8366 32 16 32C7.16344 32 0 24.8366 0 16Z" fill="white"></path>
    <path fill-rule="evenodd" clip-rule="evenodd" d="M16.0008 7.46667C13.6833 7.46667 13.3924 7.47681 12.4822 7.51823C11.5737 7.55983 10.9536 7.70366 10.4111 7.91468C9.84981 8.13264 9.37372 8.4242 8.8994 8.89869C8.42473 9.37301 8.13317 9.8491 7.9145 10.4102C7.70294 10.9529 7.55894 11.5732 7.51805 12.4813C7.47734 13.3915 7.46667 13.6826 7.46667 16.0001C7.46667 18.3176 7.47699 18.6076 7.51823 19.5178C7.56001 20.4263 7.70383 21.0464 7.91468 21.589C8.13282 22.1502 8.42437 22.6263 8.89887 23.1006C9.37301 23.5753 9.8491 23.8676 10.41 24.0855C10.9529 24.2965 11.5732 24.4404 12.4815 24.482C13.3917 24.5234 13.6824 24.5335 15.9997 24.5335C18.3175 24.5335 18.6074 24.5234 19.5176 24.482C20.4261 24.4404 21.0469 24.2965 21.5898 24.0855C22.1509 23.8676 22.6263 23.5753 23.1004 23.1006C23.5751 22.6263 23.8667 22.1502 24.0853 21.5891C24.2951 21.0464 24.4391 20.4261 24.4818 19.518C24.5227 18.6078 24.5333 18.3176 24.5333 16.0001C24.5333 13.6826 24.5227 13.3917 24.4818 12.4815C24.4391 11.573 24.2951 10.9529 24.0853 10.4103C23.8667 9.8491 23.5751 9.37301 23.1004 8.89869C22.6258 8.42402 22.1511 8.13246 21.5893 7.91468C21.0453 7.70366 20.4249 7.55983 19.5164 7.51823C18.6062 7.47681 18.3164 7.46667 15.9981 7.46667H16.0008ZM15.2353 9.00444C15.4625 9.00409 15.716 9.00444 16.0008 9.00444C18.2792 9.00444 18.5492 9.01262 19.449 9.05351C20.281 9.09156 20.7326 9.23058 21.0334 9.34738C21.4316 9.50205 21.7155 9.68694 22.014 9.98561C22.3127 10.2843 22.4976 10.5687 22.6526 10.967C22.7694 11.2674 22.9086 11.719 22.9464 12.551C22.9873 13.4505 22.9962 13.7208 22.9962 15.9981C22.9962 18.2755 22.9873 18.5457 22.9464 19.4453C22.9084 20.2773 22.7694 20.7288 22.6526 21.0293C22.4979 21.4275 22.3127 21.7111 22.014 22.0096C21.7153 22.3082 21.4318 22.4931 21.0334 22.6478C20.7329 22.7651 20.281 22.9038 19.449 22.9418C18.5494 22.9827 18.2792 22.9916 16.0008 22.9916C13.7222 22.9916 13.4521 22.9827 12.5526 22.9418C11.7205 22.9034 11.269 22.7644 10.968 22.6476C10.5698 22.4929 10.2853 22.3081 9.98666 22.0094C9.68799 21.7107 9.5031 21.427 9.34808 21.0286C9.23128 20.7281 9.09208 20.2766 9.05421 19.4446C9.01332 18.545 9.00514 18.2748 9.00514 15.996C9.00514 13.7172 9.01332 13.4484 9.05421 12.5488C9.09226 11.7168 9.23128 11.2653 9.34808 10.9645C9.50275 10.5662 9.68799 10.2818 9.98666 9.98312C10.2853 9.68445 10.5698 9.49956 10.968 9.34454C11.2688 9.2272 11.7205 9.08853 12.5526 9.05031C13.3398 9.01476 13.6448 9.00409 15.2353 9.00231V9.00444ZM20.5558 10.4214C19.9905 10.4214 19.5318 10.8795 19.5318 11.445C19.5318 12.0103 19.9905 12.469 20.5558 12.469C21.1212 12.469 21.5799 12.0103 21.5799 11.445C21.5799 10.8797 21.1212 10.4214 20.5558 10.4214ZM16.0008 11.6178C13.5807 11.6178 11.6186 13.58 11.6186 16.0001C11.6186 18.4202 13.5807 20.3815 16.0008 20.3815C18.4209 20.3815 20.3824 18.4202 20.3824 16.0001C20.3824 13.58 18.4209 11.6178 16.0008 11.6178ZM16.0008 13.1556C17.5717 13.1556 18.8453 14.429 18.8453 16.0001C18.8453 17.5709 17.5717 18.8445 16.0008 18.8445C14.4298 18.8445 13.1563 17.5709 13.1563 16.0001C13.1563 14.429 14.4298 13.1556 16.0008 13.1556Z" fill="white"></path>
  </symbol>
  <symbol fill="none" xmlns="http://www.w3.org/2000/svg" viewBox="0 0 32 32" id="twitter-icon">
    <path opacity="0.1" fill-rule="evenodd" clip-rule="evenodd" d="M0 16C0 7.16344 7.16344 0 16 0C24.8366 0 32 7.16344 32 16C32 24.8366 24.8366 32 16 32C7.16344 32 0 24.8366 0 16Z" fill="white"></path>
    <path fill-rule="evenodd" clip-rule="evenodd" d="M15.5208 13.005L15.5544 13.5586L14.9948 13.4908C12.9579 13.2309 11.1784 12.3497 9.66756 10.8695L8.92891 10.1351L8.73865 10.6774C8.33575 11.8864 8.59316 13.1632 9.43253 14.0219C9.8802 14.4964 9.77948 14.5642 9.00725 14.2817C8.73865 14.1913 8.50363 14.1235 8.48124 14.1574C8.4029 14.2365 8.6715 15.2647 8.88414 15.6715C9.17513 16.2364 9.76828 16.79 10.4174 17.1177L10.9658 17.3776L10.3167 17.3889C9.68994 17.3889 9.66756 17.4002 9.73471 17.6374C9.95854 18.3719 10.8427 19.1515 11.8276 19.4904L12.5214 19.7277L11.9171 20.0893C11.0218 20.609 9.96973 20.9028 8.91772 20.9254C8.41409 20.9367 8 20.9819 8 21.0158C8 21.1287 9.36538 21.7615 10.16 22.01C12.5438 22.7445 15.3753 22.4281 17.5017 21.1739C19.0126 20.2813 20.5235 18.5074 21.2286 16.79C21.6091 15.8748 21.9896 14.2026 21.9896 13.4004C21.9896 12.8807 22.0232 12.8129 22.6499 12.1915C23.0192 11.8299 23.3662 11.4345 23.4333 11.3215C23.5452 11.1068 23.534 11.1068 22.9633 11.2989C22.012 11.6378 21.8777 11.5926 22.3477 11.0842C22.6947 10.7226 23.1088 10.0673 23.1088 9.87524C23.1088 9.84134 22.9409 9.89783 22.7506 9.99952C22.5492 10.1125 22.1015 10.282 21.7658 10.3837L21.1614 10.5758L20.613 10.2029C20.3108 9.99952 19.8856 9.77355 19.6617 9.70576C19.0909 9.54758 18.218 9.57017 17.7032 9.75095C16.3042 10.2594 15.4201 11.57 15.5208 13.005Z" fill="white"></path>
  </symbol>
  <symbol fill="none" xmlns="http://www.w3.org/2000/svg" viewBox="0 0 32 32" id="utube-icon">
    <path opacity="0.1" fill-rule="evenodd" clip-rule="evenodd" d="M0 16C0 7.16344 7.16344 0 16 0C24.8366 0 32 7.16344 32 16C32 24.8366 24.8366 32 16 32C7.16344 32 0 24.8366 0 16Z" fill="white"></path>
    <path fill-rule="evenodd" clip-rule="evenodd" d="M22.6677 10.4995C23.4021 10.701 23.9804 11.2948 24.1767 12.0488C24.5333 13.4153 24.5333 16.2666 24.5333 16.2666C24.5333 16.2666 24.5333 19.1178 24.1767 20.4845C23.9804 21.2385 23.4021 21.8322 22.6677 22.0338C21.3369 22.4 16 22.4 16 22.4C16 22.4 10.6631 22.4 9.33218 22.0338C8.59783 21.8322 8.0195 21.2385 7.82323 20.4845C7.46667 19.1178 7.46667 16.2666 7.46667 16.2666C7.46667 16.2666 7.46667 13.4153 7.82323 12.0488C8.0195 11.2948 8.59783 10.701 9.33218 10.4995C10.6631 10.1333 16 10.1333 16 10.1333C16 10.1333 21.3369 10.1333 22.6677 10.4995ZM14.4 13.8666V19.1999L18.6667 16.5333L14.4 13.8666Z" fill="white"></path>
  </symbol>
</svg>