<svg width="102" height="22" viewBox="0 0 102 22" fill="none" xmlns="http://www.w3.org/2000/svg">
<path fill-rule="evenodd" clip-rule="evenodd" d="M102 5.9458H98.778V10.2258H91.8V5.9458H88.579V10.2258H82.942C82.4448 10.2261 81.9678 10.0291 81.6155 9.67822C81.2633 9.3273 81.0646 8.85101 81.063 8.3538V5.9458H77.842V8.3538C77.8407 8.85118 77.6421 9.32773 77.2898 9.67887C76.9376 10.03 76.4604 10.2271 75.963 10.2268C75.4656 10.2271 74.9884 10.03 74.6362 9.67887C74.2839 9.32773 74.0853 8.85118 74.084 8.3538V5.9458H70.863V8.3538C70.8617 8.85118 70.6631 9.32773 70.3108 9.67887C69.9586 10.03 69.4814 10.2271 68.984 10.2268H67.105V5.9458H63.885V10.2258H46.705V13.4378H50.463V13.9728C50.463 16.6288 48.296 18.7888 45.632 18.7888C42.968 18.7888 40.8 16.6288 40.8 13.9728V10.2268H37.58V13.9728C37.58 18.3988 41.193 21.9998 45.633 21.9998C50.073 21.9998 53.685 18.3998 53.685 13.9728V13.4378H68.985C70.2814 13.4386 71.5293 12.9447 72.474 12.0568C73.4191 12.9445 74.6674 13.4381 75.964 13.4368C77.2603 13.4379 78.5082 12.9443 79.453 12.0568C80.3978 12.9444 81.6457 13.438 82.942 13.4368H102V5.9468V5.9458Z" fill="white"/>
<path fill-rule="evenodd" clip-rule="evenodd" d="M84.702 19.297H88.556V22H91.86V16.054H84.702V19.297ZM102 0H95.439V2.973H102V0ZM26.842 11.297H10.737V5.946H26.842V11.297ZM26.842 22H0V16.649H26.842V22Z" fill="white"/>
</svg>
