<svg width="24" height="24" viewBox="0 0 24 24" fill="none" xmlns="http://www.w3.org/2000/svg">
<path d="M23.953 4.57009C23.0545 4.96569 22.1026 5.22683 21.128 5.34509C22.1541 4.72834 22.9224 3.76113 23.291 2.62209C22.34 3.17709 21.286 3.58109 20.164 3.80609C19.4238 3.01452 18.4429 2.48951 17.3736 2.31259C16.3044 2.13567 15.2067 2.31674 14.2509 2.82768C13.2952 3.33862 12.5349 4.15084 12.0881 5.13821C11.6412 6.12558 11.533 7.23286 11.78 8.28809C7.69 8.09509 4.067 6.13009 1.64 3.16209C1.19879 3.9119 0.968664 4.76711 0.974 5.63709C0.974 7.34709 1.844 8.85009 3.162 9.73309C2.38086 9.70822 1.61697 9.49702 0.934 9.11709V9.17709C0.933557 10.3135 1.32627 11.415 2.04551 12.2948C2.76474 13.1747 3.76621 13.7786 4.88 14.0041C4.1583 14.1975 3.40241 14.2265 2.668 14.0891C2.98412 15.0671 3.59766 15.922 4.42301 16.5346C5.24837 17.1471 6.24435 17.4868 7.272 17.5061C5.53153 18.872 3.38248 19.6134 1.17 19.6111C0.78 19.6111 0.391 19.5881 0 19.5441C2.25571 20.9884 4.87851 21.7551 7.557 21.7531C16.61 21.7531 21.555 14.2571 21.555 7.76809C21.555 7.55809 21.555 7.34809 21.54 7.13809C22.506 6.44295 23.3392 5.57991 24 4.59009L23.953 4.57009Z" fill="#FF5722"/>
</svg>
