<svg width="65" height="65" viewBox="0 0 65 65" fill="none" xmlns="http://www.w3.org/2000/svg">
<path d="M62.9688 37.5781V33.5156C62.9688 33.2463 62.8617 32.9879 62.6713 32.7975C62.4808 32.607 62.2225 32.5 61.9531 32.5H48.75V31.4844C48.7476 30.677 48.4258 29.9035 47.8549 29.3326C47.284 28.7617 46.5105 28.4399 45.7031 28.4375H44.6875V26.4063H49.7656C50.573 26.4038 51.3465 26.0821 51.9174 25.5112C52.4883 24.9403 52.8101 24.1667 52.8125 23.3594V5.07813C52.8101 4.27079 52.4883 3.4972 51.9174 2.92632C51.3465 2.35544 50.573 2.03366 49.7656 2.03125H15.2344C14.427 2.03366 13.6535 2.35544 13.0826 2.92632C12.5117 3.4972 12.1899 4.27079 12.1875 5.07813V23.3594C12.1899 24.1667 12.5117 24.9403 13.0826 25.5112C13.6535 26.0821 14.427 26.4038 15.2344 26.4063H20.3125V28.4375H19.2969C18.4895 28.4399 17.716 28.7617 17.1451 29.3326C16.5742 29.9035 16.2524 30.677 16.25 31.4844V32.5H3.04688C2.77751 32.5 2.51919 32.607 2.32872 32.7975C2.13825 32.9879 2.03125 33.2463 2.03125 33.5156V37.5781C2.03125 37.8475 2.13825 38.1058 2.32872 38.2963C2.51919 38.4868 2.77751 38.5938 3.04688 38.5938H4.94609L2.04141 61.8313C2.02191 61.9731 2.03362 62.1175 2.07572 62.2543C2.11782 62.3911 2.1893 62.5171 2.28516 62.6234C2.37951 62.7328 2.4965 62.8203 2.62803 62.8799C2.75955 62.9395 2.90247 62.9698 3.04688 62.9688H5.07812C5.29788 62.9688 5.5117 62.8975 5.6875 62.7656C5.8633 62.6338 5.99159 62.4485 6.05312 62.2375L12.9492 38.5938H16.25V41.6406C16.25 41.91 16.357 42.1683 16.5475 42.3588C16.7379 42.5493 16.9963 42.6563 17.2656 42.6563H20.3125V44.6875C20.3125 44.9569 20.4195 45.2152 20.61 45.4057C20.8004 45.5961 21.0588 45.7031 21.3281 45.7031H29.4531V51.7969H22.3438C22.0744 51.7969 21.8161 51.9039 21.6256 52.0943C21.4351 52.2848 21.3281 52.5431 21.3281 52.8125V57.0578C20.6505 57.2974 20.0794 57.7688 19.7157 58.3888C19.352 59.0087 19.2192 59.7373 19.3408 60.4457C19.4623 61.1541 19.8304 61.7967 20.3799 62.26C20.9294 62.7232 21.625 62.9773 22.3438 62.9773C23.0625 62.9773 23.7581 62.7232 24.3076 62.26C24.8571 61.7967 25.2252 61.1541 25.3467 60.4457C25.4683 59.7373 25.3355 59.0087 24.9718 58.3888C24.6081 57.7688 24.037 57.2974 23.3594 57.0578V53.8281H31.4844V57.0578C30.8067 57.2974 30.2356 57.7688 29.8719 58.3888C29.5083 59.0087 29.3755 59.7373 29.497 60.4457C29.6185 61.1541 29.9866 61.7967 30.5361 62.26C31.0856 62.7232 31.7813 62.9773 32.5 62.9773C33.2187 62.9773 33.9143 62.7232 34.4639 62.26C35.0134 61.7967 35.3815 61.1541 35.503 60.4457C35.6245 59.7373 35.4917 59.0087 35.1281 58.3888C34.7644 57.7688 34.1933 57.2974 33.5156 57.0578V53.8281H41.6406V57.0578C40.963 57.2974 40.3919 57.7688 40.0282 58.3888C39.6645 59.0087 39.5317 59.7373 39.6533 60.4457C39.7748 61.1541 40.1429 61.7967 40.6924 62.26C41.2419 62.7232 41.9375 62.9773 42.6562 62.9773C43.375 62.9773 44.0706 62.7232 44.6201 62.26C45.1696 61.7967 45.5377 61.1541 45.6592 60.4457C45.7808 59.7373 45.648 59.0087 45.2843 58.3888C44.9206 57.7688 44.3495 57.2974 43.6719 57.0578V52.8125C43.6719 52.5431 43.5649 52.2848 43.3744 52.0943C43.1839 51.9039 42.9256 51.7969 42.6562 51.7969H35.5469V45.7031H43.6719C43.9412 45.7031 44.1996 45.5961 44.39 45.4057C44.5805 45.2152 44.6875 44.9569 44.6875 44.6875V42.6563H47.7344C48.0037 42.6563 48.2621 42.5493 48.4525 42.3588C48.643 42.1683 48.75 41.91 48.75 41.6406V38.5938H52.0508L58.9469 62.2375C59.0084 62.4485 59.1367 62.6338 59.3125 62.7656C59.4883 62.8975 59.7021 62.9688 59.9219 62.9688H61.9531C62.0975 62.9698 62.2404 62.9395 62.372 62.8799C62.5035 62.8203 62.6205 62.7328 62.7148 62.6234C62.8107 62.5171 62.8822 62.3911 62.9243 62.2543C62.9664 62.1175 62.9781 61.9731 62.9586 61.8313L60.0539 38.5938H61.9531C62.2225 38.5938 62.4808 38.4868 62.6713 38.2963C62.8617 38.1058 62.9688 37.8475 62.9688 37.5781ZM4.31641 60.9375H4.19453L6.9875 38.5938H10.8367L4.31641 60.9375ZM16.25 36.5625H4.0625V34.5313H16.25V36.5625ZM20.3125 40.625H18.2812V31.4844C18.2812 31.215 18.3883 30.9567 18.5787 30.7662C18.7692 30.5758 19.0275 30.4688 19.2969 30.4688H20.3125V40.625ZM22.3438 60.9375C22.1429 60.9375 21.9465 60.8779 21.7795 60.7663C21.6125 60.6547 21.4823 60.4961 21.4054 60.3105C21.3286 60.125 21.3085 59.9208 21.3476 59.7237C21.3868 59.5267 21.4836 59.3458 21.6256 59.2037C21.7676 59.0617 21.9486 58.965 22.1456 58.9258C22.3426 58.8866 22.5468 58.9067 22.7324 58.9836C22.918 59.0604 23.0766 59.1906 23.1882 59.3576C23.2998 59.5247 23.3594 59.721 23.3594 59.9219C23.3594 60.1912 23.2524 60.4496 23.0619 60.64C22.8714 60.8305 22.6131 60.9375 22.3438 60.9375ZM42.6562 58.9063C42.8571 58.9063 43.0535 58.9658 43.2205 59.0774C43.3875 59.189 43.5177 59.3476 43.5946 59.5332C43.6714 59.7188 43.6915 59.923 43.6524 60.12C43.6132 60.317 43.5164 60.498 43.3744 60.64C43.2324 60.7821 43.0514 60.8788 42.8544 60.918C42.6574 60.9572 42.4532 60.9371 42.2676 60.8602C42.082 60.7833 41.9234 60.6531 41.8118 60.4861C41.7002 60.3191 41.6406 60.1228 41.6406 59.9219C41.6406 59.6525 41.7476 59.3942 41.9381 59.2037C42.1286 59.0133 42.3869 58.9063 42.6562 58.9063ZM32.5 60.9375C32.2991 60.9375 32.1028 60.8779 31.9357 60.7663C31.7687 60.6547 31.6386 60.4961 31.5617 60.3105C31.4848 60.125 31.4647 59.9208 31.5039 59.7237C31.5431 59.5267 31.6398 59.3458 31.7818 59.2037C31.9239 59.0617 32.1048 58.965 32.3019 58.9258C32.4989 58.8866 32.7031 58.9067 32.8887 58.9836C33.0742 59.0604 33.2329 59.1906 33.3445 59.3576C33.4561 59.5247 33.5156 59.721 33.5156 59.9219C33.5156 60.1912 33.4086 60.4496 33.2182 60.64C33.0277 60.8305 32.7694 60.9375 32.5 60.9375ZM33.5156 51.7969H31.4844V45.7031H33.5156V51.7969ZM42.6562 43.6719H22.3438V23.3594C22.3438 23.09 22.4508 22.8317 22.6412 22.6412C22.8317 22.4508 23.09 22.3438 23.3594 22.3438H41.6406C41.91 22.3438 42.1683 22.4508 42.3588 22.6412C42.5492 22.8317 42.6562 23.09 42.6562 23.3594V43.6719ZM26.4062 20.3125V18.2813C26.4062 16.6651 27.0483 15.1151 28.1911 13.9723C29.3339 12.8295 30.8838 12.1875 32.5 12.1875C34.1162 12.1875 35.6661 12.8295 36.8089 13.9723C37.9517 15.1151 38.5938 16.6651 38.5938 18.2813V20.3125H26.4062ZM41.6406 20.3125H40.625V18.2813C40.625 16.1264 39.769 14.0597 38.2452 12.536C36.7215 11.0123 34.6549 10.1563 32.5 10.1563C30.3451 10.1563 28.2785 11.0123 26.7548 12.536C25.231 14.0597 24.375 16.1264 24.375 18.2813V20.3125H23.3594C22.552 20.3149 21.7785 20.6367 21.2076 21.2076C20.6367 21.7785 20.3149 22.552 20.3125 23.3594V24.375H15.2344C14.965 24.375 14.7067 24.268 14.5162 24.0775C14.3258 23.8871 14.2188 23.6287 14.2188 23.3594V5.07813C14.2188 4.80876 14.3258 4.55044 14.5162 4.35997C14.7067 4.1695 14.965 4.0625 15.2344 4.0625H49.7656C50.035 4.0625 50.2933 4.1695 50.4838 4.35997C50.6742 4.55044 50.7812 4.80876 50.7812 5.07813V23.3594C50.7812 23.6287 50.6742 23.8871 50.4838 24.0775C50.2933 24.268 50.035 24.375 49.7656 24.375H44.6875V23.3594C44.6851 22.552 44.3633 21.7785 43.7924 21.2076C43.2215 20.6367 42.448 20.3149 41.6406 20.3125ZM46.7188 40.625H44.6875V30.4688H45.7031C45.9725 30.4688 46.2308 30.5758 46.4213 30.7662C46.6117 30.9567 46.7188 31.215 46.7188 31.4844V40.625ZM60.8055 60.9375H60.6836L54.1633 38.5938H58.0125L60.8055 60.9375ZM60.9375 36.5625H48.75V34.5313H60.9375V36.5625Z" fill="#878787"/>
<path d="M46.7188 11.1719H48.75V7.10938C48.75 6.84001 48.643 6.58169 48.4525 6.39122C48.2621 6.20075 48.0037 6.09375 47.7344 6.09375H43.6719V8.125H46.7188V11.1719Z" fill="#878787"/>
<path d="M48.75 13.2031H46.7188V15.2344H48.75V13.2031Z" fill="#878787"/>
</svg>
